<svg xmlns="http://www.w3.org/2000/svg" xmlns:xlink="http://www.w3.org/1999/xlink" width="956" height="300" viewBox="0 0 956 300">
    <defs>
      <clipPath id="clip-blue">
        <rect width="956" height="300"/>
      </clipPath>
    </defs>
    <g id="blue" clip-path="url(#clip-blue)">
      <text id="Platform_Integration_Labs" data-name="Platform &amp; 
  Integration Labs" transform="translate(284 64)" fill="#0079c5" font-size="72" font-family="BentonSans-Regular, BentonSans"><tspan fill="#000"><tspan x="0" y="68">Platform &amp; </tspan></tspan><tspan x="0" y="154">Integration Labs</tspan></text>
      <path id="Subtraction_6" data-name="Subtraction 6" d="M-4707.228-1983.927a15.687,15.687,0,0,1-5.423-.96,15.816,15.816,0,0,1-4.615-2.654,15.855,15.855,0,0,1-5.424-9.011h30.926a15.845,15.845,0,0,1-5.423,9.011,15.792,15.792,0,0,1-4.614,2.654A15.706,15.706,0,0,1-4707.228-1983.927Zm18.941-18.938h-37.877a3.16,3.16,0,0,1-3.156-3.156,3.159,3.159,0,0,1,3.156-3.155h37.877a3.159,3.159,0,0,1,3.156,3.155A3.16,3.16,0,0,1-4688.287-2002.866Zm6.312-12.626h-50.5a3.159,3.159,0,0,1-3.155-3.156,3.159,3.159,0,0,1,3.155-3.156h50.5a3.159,3.159,0,0,1,3.155,3.156A3.159,3.159,0,0,1-4681.976-2015.491Zm-3.155-12.624h-15.783v-31.566h-6.314a6.32,6.32,0,0,1-6.314-6.312,6.32,6.32,0,0,1,6.314-6.313h6.314v-18.938h18.938v-6.314a6.319,6.319,0,0,1,6.312-6.312,6.32,6.32,0,0,1,6.314,6.312v6.314h18.893a54.908,54.908,0,0,1-1.667,11.474,54.534,54.534,0,0,1-1.993,6.21l-3.474-3.474a1.985,1.985,0,0,0-1.414-.586,1.986,1.986,0,0,0-1.414.586,1.986,1.986,0,0,0-.586,1.414,1.988,1.988,0,0,0,.586,1.415l4.588,4.589c-.1.212-.2.4-.285.582a54.562,54.562,0,0,1-6.165,9.669,55.2,55.2,0,0,1-8.182,8.281l-14.669,12v10.965Zm17.225-48.691a2,2,0,0,0-1.889,1.35l-6.512,18.91a2,2,0,0,0,1.24,2.543,1.992,1.992,0,0,0,.65.109,2,2,0,0,0,1.892-1.349l6.512-18.911a1.987,1.987,0,0,0-.094-1.528,1.984,1.984,0,0,0-1.147-1.014A1.983,1.983,0,0,0-4667.906-2076.806Zm-15-.814a1.986,1.986,0,0,0-1.414.587l-9.9,9.9a1.993,1.993,0,0,0-.573,1.651,1.988,1.988,0,0,0,.691,1.846l10.724,9a2,2,0,0,0,1.285.469,2,2,0,0,0,1.533-.715,2,2,0,0,0-.246-2.818l-9.346-7.842,8.66-8.66a1.988,1.988,0,0,0,.587-1.416,1.986,1.986,0,0,0-.587-1.413A1.983,1.983,0,0,0-4682.909-2077.62Zm-24.319,49.5h-22.092v-10.966l-8.995-7.358.014-.007.007,0,.012-.006.032-.018c2.138-1.069,4.332-2.16,6.2-3.086l.008,0,.338-.167.134-.067.406-.2.25-.123c1.576-.783,3.635-1.808,5.583-2.781l.013-.006.007,0a3.989,3.989,0,0,0,1-.552,1.492,1.492,0,0,0,.546-1.291,1.457,1.457,0,0,0-.752-1.16,1.234,1.234,0,0,0-.658-.2,2.563,2.563,0,0,0-1.115.369l-.009,0-.057.029-.178.09-.008,0c-4.515,2.256-8.584,4.294-12.675,6.388a5.975,5.975,0,0,1-1.751.619l-3.025-2.475a55.175,55.175,0,0,1-6.884-6.717c1.908.96,3.945,1.983,5.892,2.957a5.906,5.906,0,0,0,2.561.684c.13,0,.261-.007.4-.02.084,0,.183,0,.288,0a8.26,8.26,0,0,0,3.9-.974c3.036-1.5,6.044-3.024,8.953-4.5l.24-.122.215-.109c1.285-.653,2.319-1.178,3.252-1.65a4.9,4.9,0,0,0,.968-.612,1.278,1.278,0,0,0,.357-1.685,1.434,1.434,0,0,0-1.28-.856,1.661,1.661,0,0,0-.351.039,5,5,0,0,0-1.176.51c-1.317.667-2.7,1.361-3.928,1.973l-.025.013-.7.352-.021.01-.01,0-.046.024-.01,0c-2.53,1.263-5.147,2.57-7.71,3.9a5.541,5.541,0,0,1-2.62.708,5.967,5.967,0,0,1-2.689-.708c-3.369-1.746-6.913-3.513-10.039-5.072l-.028-.014-.456-.227a54.558,54.558,0,0,1-4.518-8.274,2.175,2.175,0,0,0,.338.367,3.18,3.18,0,0,0,.97.612c4.413,2.229,8.948,4.5,12.852,6.45l.677.338a5.331,5.331,0,0,0,2.445.635c.153,0,.309-.008.464-.023a4.082,4.082,0,0,0,.563.041,5.3,5.3,0,0,0,2.4-.653l.1-.051.059-.03.344-.173.049-.025c3.749-1.9,8.413-4.254,12.771-6.407.06-.035.119-.067.181-.1l.006,0,.035-.019.009,0,.021-.011,0,0,.015-.008a3.127,3.127,0,0,0,.494-.309,1.728,1.728,0,0,0,.946-1.337,1.573,1.573,0,0,0-.893-1.216,2.7,2.7,0,0,0-.508-.3l-.009,0,0,0c-.1-.049-.2-.1-.3-.154-4.508-2.229-9-4.475-13.219-6.585a6.845,6.845,0,0,0-3.064-.765,6.823,6.823,0,0,0-3.061.765c-3.409,1.743-7.05,3.558-9.708,4.883l-.166.084-.026.012-2.636,1.316-.2.1-.486.243a5.887,5.887,0,0,0-1.124.662,1.238,1.238,0,0,0-.561,1.162,54.419,54.419,0,0,1-4.313-19.286h25.209v-6.314a6.319,6.319,0,0,1,6.312-6.312,6.321,6.321,0,0,1,6.315,6.312v6.314h18.936v12.626a12.64,12.64,0,0,0-12.625,12.625,12.639,12.639,0,0,0,12.625,12.625v25.252Zm-37.877-69.442h-18.782a54.1,54.1,0,0,1,5.375-19.791c.427-.871.877-1.731,1.337-2.557l16.571,8.288,16.929-8.465v-21.141l-5.922-2.962a54.311,54.311,0,0,1,20.22-3.874h2.148v15.781a12.641,12.641,0,0,0-12.625,12.626,12.64,12.64,0,0,0,12.625,12.627v9.467h-12.625a12.543,12.543,0,0,0-3.7-8.923,12.542,12.542,0,0,0-8.924-3.7,12.639,12.639,0,0,0-12.625,12.624Zm6.385-19.216h0v-10.495l9.4,5.831-9.4,4.664Zm-3.764,0h0l-9.4-4.664,9.4-5.831v10.494Zm85.761-6.035h-12.627v-15.783h-6.314a6.319,6.319,0,0,1-6.312-6.312,6.319,6.319,0,0,1,6.312-6.313h6.314v-12.626a3.16,3.16,0,0,1,3.156-3.156H-4622a3.16,3.16,0,0,1,3.157,3.156v37.877a3.16,3.16,0,0,1-3.157,3.156h-9.468a12.55,12.55,0,0,0-3.7-8.924,12.54,12.54,0,0,0-8.923-3.7,12.64,12.64,0,0,0-12.625,12.625Zm-97.045-1.826v0h0v-.635a55.172,55.172,0,0,1,6.4-7.395l3.212,2.012-9.61,6.019Zm26.333,0h0l-9.61-6.018,9.613-6.02v12.037Zm-11.286-9.4v0h0v-5.46c1.525-.973,3.112-1.879,4.719-2.693l4.686,2.324-9.4,5.83Zm-3.763,0h0l-1.989-1.234c.655-.551,1.325-1.087,1.991-1.595v2.828Z" transform="translate(4851.999 2225.463)" fill="#0079c5"/>
    </g>
  </svg>
  